<?xml version="1.0" encoding="UTF-8" standalone="no"?>
<!-- Created with Inkscape (http://www.inkscape.org/) -->

<svg
   xmlns:dc="http://purl.org/dc/elements/1.1/"
   xmlns:cc="http://creativecommons.org/ns#"
   xmlns:rdf="http://www.w3.org/1999/02/22-rdf-syntax-ns#"
   xmlns:svg="http://www.w3.org/2000/svg"
   xmlns="http://www.w3.org/2000/svg"
   xmlns:xlink="http://www.w3.org/1999/xlink"
   xmlns:sodipodi="http://sodipodi.sourceforge.net/DTD/sodipodi-0.dtd"
   xmlns:inkscape="http://www.inkscape.org/namespaces/inkscape"
   width="219.50002"
   height="219.50002"
   id="svg2"
   version="1.1"
   inkscape:version="0.48.0 r9654"
   sodipodi:docname="logos.svg">
  <defs
     id="defs4">
    <linearGradient
       id="linearGradient4592">
      <stop
         id="stop4594"
         offset="0"
         style="stop-color:#bfbfbf;stop-opacity:1" />
      <stop
         id="stop4596"
         offset="1"
         style="stop-color:#eeeeee;stop-opacity:1" />
    </linearGradient>
    <linearGradient
       id="linearGradient4491">
      <stop
         style="stop-color:#7fc0ff;stop-opacity:1"
         offset="0"
         id="stop4493" />
      <stop
         style="stop-color:#ddefff;stop-opacity:1"
         offset="1"
         id="stop4495" />
    </linearGradient>
    <linearGradient
       id="linearGradient4075">
      <stop
         id="stop4077"
         offset="0"
         style="stop-color:#3199ff;stop-opacity:1" />
      <stop
         id="stop4079"
         offset="1"
         style="stop-color:#9fd0ff;stop-opacity:1" />
    </linearGradient>
    <linearGradient
       id="linearGradient4069"
       inkscape:collect="always">
      <stop
         id="stop4071"
         offset="0"
         style="stop-color:#353535;stop-opacity:1" />
      <stop
         id="stop4073"
         offset="1"
         style="stop-color:#a5a5a5;stop-opacity:1" />
    </linearGradient>
    <linearGradient
       id="linearGradient3846">
      <stop
         style="stop-color:#464646;stop-opacity:1"
         offset="0"
         id="stop3848" />
      <stop
         style="stop-color:#727272;stop-opacity:1"
         offset="1"
         id="stop3850" />
    </linearGradient>
    <filter
       inkscape:collect="always"
       id="filter3832"
       color-interpolation-filters="sRGB">
      <feGaussianBlur
         inkscape:collect="always"
         stdDeviation="2.4496199"
         id="feGaussianBlur3834" />
    </filter>
    <clipPath
       clipPathUnits="userSpaceOnUse"
       id="clipPath3881">
      <path
         transform="matrix(0.83092783,0,0,0.83092783,54.90856,92.957784)"
         sodipodi:type="arc"
         style="fill:#333333;fill-opacity:1;stroke:none"
         id="path3883"
         sodipodi:cx="324.76404"
         sodipodi:cy="549.81128"
         sodipodi:rx="244.96199"
         sodipodi:ry="244.96199"
         d="m 569.72603,549.81128 a 244.96199,244.96199 0 1 1 -489.923982,0 244.96199,244.96199 0 1 1 489.923982,0 z" />
    </clipPath>
    <filter
       inkscape:collect="always"
       id="filter4104"
       color-interpolation-filters="sRGB">
      <feGaussianBlur
         inkscape:collect="always"
         stdDeviation="19.596875"
         id="feGaussianBlur4106" />
    </filter>
    <filter
       inkscape:collect="always"
       id="filter4125"
       x="-0.12851599"
       width="1.257032"
       y="-0.1072925"
       height="1.2145849"
       color-interpolation-filters="sRGB">
      <feGaussianBlur
         inkscape:collect="always"
         stdDeviation="12.82832"
         id="feGaussianBlur4127" />
    </filter>
    <filter
       inkscape:collect="always"
       id="filter4179"
       color-interpolation-filters="sRGB">
      <feGaussianBlur
         inkscape:collect="always"
         stdDeviation="4.2743758"
         id="feGaussianBlur4181" />
    </filter>
    <filter
       inkscape:collect="always"
       id="filter5012"
       x="-0.05063929"
       width="1.1012785"
       y="-0.12452889"
       height="1.2490578"
       color-interpolation-filters="sRGB">
      <feGaussianBlur
         inkscape:collect="always"
         stdDeviation="1.9467773"
         id="feGaussianBlur5014" />
    </filter>
    <clipPath
       clipPathUnits="userSpaceOnUse"
       id="clipPath5668">
      <rect
         y="-27.494961"
         x="-400.71429"
         height="192.85715"
         width="192.85715"
         id="rect5670"
         style="fill:url(#linearGradient5672);fill-opacity:1;stroke:none" />
    </clipPath>
    <linearGradient
       inkscape:collect="always"
       xlink:href="#linearGradient4075"
       id="linearGradient5672"
       gradientUnits="userSpaceOnUse"
       gradientTransform="matrix(0.92465753,0,0,0.92465753,-152.37769,3.3443131)"
       x1="-168.57144"
       y1="172.86993"
       x2="-168.57144"
       y2="-28.352106" />
    <filter
       inkscape:collect="always"
       id="filter5702"
       color-interpolation-filters="sRGB">
      <feGaussianBlur
         inkscape:collect="always"
         stdDeviation="7.7498438"
         id="feGaussianBlur5704" />
    </filter>
    <linearGradient
       inkscape:collect="always"
       xlink:href="#linearGradient4075"
       id="linearGradient5794"
       gradientUnits="userSpaceOnUse"
       gradientTransform="matrix(0.92465753,0,0,0.92465753,-152.37769,3.3443131)"
       x1="-168.57144"
       y1="172.86993"
       x2="-168.57144"
       y2="-28.352106" />
    <linearGradient
       inkscape:collect="always"
       xlink:href="#linearGradient4069"
       id="linearGradient5796"
       gradientUnits="userSpaceOnUse"
       x1="358.60416"
       y1="781.6413"
       x2="358.60416"
       y2="309.26456" />
    <linearGradient
       inkscape:collect="always"
       xlink:href="#linearGradient4075"
       id="linearGradient5798"
       gradientUnits="userSpaceOnUse"
       x1="303.90353"
       y1="348.95438"
       x2="303.90353"
       y2="769.75586" />
    <linearGradient
       inkscape:collect="always"
       xlink:href="#linearGradient4069"
       id="linearGradient5800"
       gradientUnits="userSpaceOnUse"
       x1="358.60416"
       y1="781.6413"
       x2="358.60416"
       y2="309.26456" />
    <linearGradient
       inkscape:collect="always"
       xlink:href="#linearGradient4075"
       id="linearGradient5802"
       gradientUnits="userSpaceOnUse"
       x1="303.90353"
       y1="348.95438"
       x2="303.90353"
       y2="769.75586" />
  </defs>
  <sodipodi:namedview
     id="base"
     pagecolor="#ffffff"
     bordercolor="#666666"
     borderopacity="1.0"
     inkscape:pageopacity="0.0"
     inkscape:pageshadow="2"
     inkscape:zoom="0.7"
     inkscape:cx="-413.81171"
     inkscape:cy="-108.87411"
     inkscape:document-units="px"
     inkscape:current-layer="g5412"
     showgrid="false"
     showguides="true"
     inkscape:guide-bbox="true"
     inkscape:window-width="1437"
     inkscape:window-height="854"
     inkscape:window-x="4"
     inkscape:window-y="0"
     inkscape:window-maximized="0"
     fit-margin-top="0"
     fit-margin-left="0"
     fit-margin-right="0"
     fit-margin-bottom="0" />
  <metadata
     id="metadata7">
    <rdf:RDF>
      <cc:Work
         rdf:about="">
        <dc:format>image/svg+xml</dc:format>
        <dc:type
           rdf:resource="http://purl.org/dc/dcmitype/StillImage" />
        <dc:title></dc:title>
      </cc:Work>
    </rdf:RDF>
  </metadata>
  <g
     inkscape:label="Layer 1"
     inkscape:groupmode="layer"
     id="layer1"
     transform="translate(-508.54553,-47.052807)">
    <g
       style="font-size:73.84620667px;font-style:normal;font-variant:normal;font-weight:100;font-stretch:normal;text-align:start;line-height:125%;letter-spacing:0px;word-spacing:0px;writing-mode:lr-tb;text-anchor:start;fill:#666666;fill-opacity:1;stroke:none;font-family:Skia;-inkscape-font-specification:Skia Thin"
       id="text5130" />
    <g
       id="g5412"
       transform="translate(69.50258,87.27922)">
      <path
         inkscape:export-ydpi="13.120726"
         inkscape:export-xdpi="13.120726"
         inkscape:export-filename="/Users/maebert/Desktop/favicon.png"
         sodipodi:type="arc"
         style="fill:url(#linearGradient5796);fill-opacity:1;stroke:none"
         id="path5348"
         sodipodi:cx="324.76404"
         sodipodi:cy="549.81128"
         sodipodi:rx="244.96199"
         sodipodi:ry="244.96199"
         d="m 569.72603,549.81128 c 0,135.28877 -109.67322,244.96199 -244.96199,244.96199 -135.28877,0 -244.961992,-109.67322 -244.961992,-244.96199 0,-135.28877 109.673222,-244.96199 244.961992,-244.96199 135.28877,0 244.96199,109.67322 244.96199,244.96199 z"
         transform="matrix(0.44802872,0,0,0.44802872,403.28934,-176.80765)" />
      <g
         inkscape:export-ydpi="13.120726"
         inkscape:export-xdpi="13.120726"
         inkscape:export-filename="/Users/maebert/Desktop/favicon.png"
         transform="matrix(1.0024324,0,0,1.0024324,-41.432138,-40.266388)"
         id="g5403">
        <path
           transform="matrix(0.39893149,0,0,0.39893149,459.23435,-109.81344)"
           sodipodi:type="arc"
           style="fill:url(#linearGradient5798);fill-opacity:1;stroke:none"
           id="path5350"
           sodipodi:cx="324.76404"
           sodipodi:cy="549.81128"
           sodipodi:rx="244.96199"
           sodipodi:ry="244.96199"
           d="m 569.72603,549.81128 c 0,135.28877 -109.67322,244.96199 -244.96199,244.96199 -135.28877,0 -244.961992,-109.67322 -244.961992,-244.96199 0,-135.28877 109.673222,-244.96199 244.961992,-244.96199 135.28877,0 244.96199,109.67322 244.96199,244.96199 z"
           inkscape:export-filename="/Users/maebert/Desktop/favicon.png"
           inkscape:export-xdpi="12.24415"
           inkscape:export-ydpi="12.24415" />
        <path
           transform="matrix(0.48010367,0,0,0.48010367,432.87255,-154.44282)"
           clip-path="url(#clipPath3881)"
           inkscape:connector-curvature="0"
           id="path5352"
           d="m 324.75,304.84375 c -135.28877,0 -244.9375,109.67998 -244.9375,244.96875 0,135.28877 109.64873,244.96875 244.9375,244.96875 135.28877,0 244.96875,-109.67998 244.96875,-244.96875 0,-135.28877 -109.67998,-244.96875 -244.96875,-244.96875 z m 0,41.40625 c 112.41521,0 203.5625,91.14729 203.5625,203.5625 0,112.41521 -91.14729,203.53125 -203.5625,203.53125 -112.41521,0 -203.53125,-91.11604 -203.53125,-203.53125 0,-112.41521 91.11604,-203.5625 203.53125,-203.5625 z"
           style="opacity:0.87068936;fill:#004283;fill-opacity:1;stroke:none;filter:url(#filter4104)"
           inkscape:export-filename="/Users/maebert/Desktop/favicon.png"
           inkscape:export-xdpi="12.24415"
           inkscape:export-ydpi="12.24415" />
        <path
           inkscape:connector-curvature="0"
           id="path5354"
           d="m 588.78621,11.793082 c -52.30957,0 -95.01616,41.111015 -97.59607,92.780038 25.092,17.42085 59.5523,28.17608 97.59607,28.17608 38.03868,0 72.50492,-10.75935 97.59608,-28.17608 -2.57993,-51.66901 -45.28651,-92.780038 -97.59608,-92.780038 z"
           style="opacity:0.19396554;fill:#ffffff;fill-opacity:1;stroke:none"
           inkscape:export-filename="/Users/maebert/Desktop/favicon.png"
           inkscape:export-xdpi="12.24415"
           inkscape:export-ydpi="12.24415" />
      </g>
      <path
         inkscape:export-ydpi="13.120726"
         inkscape:export-xdpi="13.120726"
         inkscape:export-filename="/Users/maebert/Desktop/favicon.png"
         transform="matrix(0.48010367,0,0,0.48010367,393.83275,-195.40303)"
         inkscape:connector-curvature="0"
         id="path5358"
         d="m 297.64242,704.4407 c -9.64433,-2.76469 -13.08681,-6.85176 -13.6453,-16.20036 -0.41339,-6.91931 1.10389,-13.12751 5.35009,-21.89085 3.66397,-7.56175 6.60898,-11.75199 12.99119,-18.48433 5.8204,-6.13968 6.97434,-9.62393 8.44335,-25.49396 1.31988,-14.25891 3.88349,-21.40765 9.71313,-27.08546 6.02055,-5.86375 17.24724,-9.54502 29.33073,-9.61764 6.62588,-0.0398 7.49891,0.1031 10.60414,1.73549 2.18717,1.14978 5.0881,3.70115 8.20303,7.21456 13.58707,15.32525 19.25443,19.46872 36.04943,26.35616 12.28839,5.03933 13.69778,5.74973 16.78531,8.46061 6.72008,5.90031 7.25289,17.06939 1.43217,30.02245 -2.40217,5.34566 -5.5427,8.60293 -10.39345,10.77982 -5.43162,2.43756 -8.94136,2.93855 -25.54762,3.64674 -16.22661,0.69199 -22.99717,1.70595 -31.19269,4.67144 -7.10943,2.5725 -13.72158,6.40244 -23.73069,13.74548 -4.51624,3.31328 -9.89307,7.03709 -11.94849,8.27512 -7.31405,4.40544 -15.58813,5.83017 -22.44433,3.86473 z m -43.45715,-42.66928 c -4.19657,-1.15548 -10.8976,-4.35111 -15.45028,-7.36803 -5.51289,-3.65322 -17.08518,-15.044 -18.87793,-18.58182 -6.54125,-12.90857 -5.96795,-35.4889 1.26297,-49.74327 5.00497,-9.8663 12.2327,-13.3317 20.77947,-9.96287 5.04645,1.98912 8.8054,4.80043 15.55407,11.63284 6.96032,7.04667 21.29573,25.82505 22.49964,29.47292 2.02752,6.14344 -1.16048,24.7063 -5.97007,34.76216 -4.57915,9.57409 -10.30095,12.40294 -19.79787,9.78807 z m 161.93596,-55.04789 c -7.18662,-2.39238 -13.55949,-8.03833 -16.44954,-14.57323 -4.41123,-9.9746 -5.89576,-22.29626 -3.93935,-32.69685 4.25585,-22.62469 17.95473,-40.46154 31.07635,-40.4635 8.57449,-9.7e-4 14.37854,4.95791 23.81408,20.34763 l 4.22561,6.89213 -0.0264,9.18949 c -0.02,6.98567 -0.38759,10.90713 -1.53274,16.35168 -3.88934,18.49177 -10.38079,30.30968 -18.60566,33.87229 -4.29159,1.85889 -14.44799,2.45002 -18.56241,1.08036 z M 208.92719,573.21158 c -3.95172,-1.41159 -8.28562,-4.23073 -9.96832,-6.48425 -2.57286,-3.44566 -3.36489,-6.81495 -3.35255,-14.26189 0.0132,-7.95226 1.12254,-11.50345 3.80388,-12.17641 4.60359,-1.15543 16.00089,8.42593 18.77855,15.78656 4.6858,12.41703 0.29106,20.54827 -9.26156,17.13599 z m 67.38249,-1.50047 c -7.10396,-1.58995 -18.44973,-6.75847 -26.21194,-11.94075 -6.33584,-4.23 -17.88735,-15.48238 -21.99743,-21.42781 -5.27532,-7.63104 -6.24333,-10.84968 -6.21526,-20.6659 0.0283,-9.91832 1.01114,-14.04883 5.5952,-23.51558 6.20122,-12.80648 16.38278,-20.79091 26.51209,-20.79091 3.94932,0 5.31347,0.3432 9.71128,2.44313 11.34038,5.41498 18.27911,14.95115 22.71816,31.22244 0.71788,2.63135 2.79985,7.39607 4.62661,10.58826 8.48939,14.83497 12.57615,25.73003 13.01713,34.70291 0.36883,7.50477 -0.68234,10.73004 -4.70583,14.43876 -4.11119,3.78958 -8.99137,5.40897 -16.01842,5.3154 -3.14534,-0.0419 -6.30956,-0.20836 -7.03159,-0.36995 z m 74.72616,-16.6473 c -6.75922,-1.33725 -11.42273,-5.64083 -20.24226,-18.67998 -6.36124,-9.40469 -8.27036,-14.01464 -11.10875,-26.82437 -5.48455,-24.75184 -3.0256,-42.84048 7.2948,-53.66233 4.27069,-4.47819 7.42276,-6.53558 12.90041,-8.42015 8.148,-2.80334 15.55819,-2.24165 22.86057,1.7328 4.2733,2.32583 12.89479,11.40419 15.85183,16.69186 3.23284,5.78086 6.12192,12.94301 7.77217,19.26756 3.4061,13.05361 -0.0228,31.06983 -9.65779,50.74403 -3.57535,7.30073 -4.98907,9.45106 -8.69151,13.22018 -3.58604,3.65064 -5.09388,4.70092 -7.97875,5.55765 -3.86264,1.14707 -4.87503,1.18901 -9.00072,0.37275 z m 69.94131,-43.4588 c -1.43201,-0.94823 -2.9884,-3.00407 -4.34812,-5.74343 -3.0828,-6.21071 -2.88625,-11.14673 0.93572,-23.49918 2.20105,-7.11373 3.89803,-9.64863 6.45934,-9.64863 1.70156,0 2.2066,0.48943 4.06392,3.93836 2.41656,4.48734 6.94343,15.68045 8.11834,20.07334 1.14381,4.2766 0.33339,7.42027 -2.78501,10.80336 -2.56293,2.78043 -7.15913,5.55307 -9.20538,5.55307 -0.55465,0 -2.01213,-0.66459 -3.23881,-1.47689 z M 232.20296,471.10168 c -1.15369,-0.70344 -2.58613,-2.02458 -3.18323,-2.93586 -1.7632,-2.69099 -4.92922,-10.95658 -5.33738,-13.93439 -0.47826,-3.48933 0.7758,-10.172 2.62843,-14.00641 2.70179,-5.5919 5.92098,-5.50148 11.8492,0.33279 8.49217,8.35756 12.13358,17.66217 9.19351,23.49136 -1.72942,3.42884 -4.21568,5.62551 -7.9474,7.02174 -4.32196,1.61705 -4.59961,1.61822 -7.20313,0.0308 z m 107.44857,-36.72167 c -4.14478,-2.1737 -10.75312,-8.78015 -12.16663,-12.16313 -2.7055,-6.47519 1.07614,-24.86305 5.61264,-27.29091 2.21167,-1.18365 6.36185,1.22378 11.54348,6.69612 2.61179,2.75834 5.49784,6.62659 6.56392,8.79779 1.67505,3.41148 1.90142,4.5816 1.89247,9.78251 -0.009,4.74956 -0.30808,6.57037 -1.52994,9.28901 -2.97188,6.61245 -6.14595,7.91464 -11.91594,4.88861 z"
         style="fill:#ffffff;fill-opacity:1;filter:url(#filter4179)" />
      <path
         inkscape:export-ydpi="13.120726"
         inkscape:export-xdpi="13.120726"
         inkscape:export-filename="/Users/maebert/Desktop/favicon.png"
         style="fill:#4d4d4d;fill-opacity:1"
         d="m 536.73197,142.80154 c -4.63028,-1.32734 -6.28303,-3.28956 -6.55116,-7.77786 -0.19847,-3.32198 0.52998,-6.30256 2.5686,-10.50987 1.75908,-3.63043 3.17299,-5.64218 6.23712,-8.8744 2.79439,-2.94768 3.3484,-4.62048 4.05368,-12.23974 0.63368,-6.84576 1.86448,-10.27789 4.66331,-13.00383 2.89049,-2.81521 8.28046,-4.5826 14.08179,-4.61747 3.18111,-0.0191 3.60025,0.0495 5.09109,0.83322 1.05006,0.55201 2.44281,1.77694 3.9383,3.46374 6.5232,7.3577 9.24412,9.347 17.30746,12.65369 5.89971,2.4194 6.57636,2.76046 8.05869,4.06197 3.22634,2.83276 3.48214,8.19507 0.68759,14.41388 -1.15329,2.56647 -2.66107,4.1303 -4.98993,5.17543 -2.60774,1.17029 -4.29278,1.41081 -12.26551,1.75082 -7.79045,0.33222 -11.04102,0.81903 -14.97572,2.24277 -3.41326,1.23507 -6.58778,3.07384 -11.39319,6.59926 -2.16827,1.59072 -4.7497,3.37853 -5.73652,3.97291 -3.5115,2.11507 -7.48392,2.79909 -10.7756,1.85548 z m -20.86394,-20.48568 c -2.01479,-0.55475 -5.23198,-2.08899 -7.41774,-3.53742 -2.64675,-1.75393 -8.20265,-7.22268 -9.06336,-8.9212 -3.14048,-6.19745 -2.86523,-17.03835 0.60636,-23.88193 2.4029,-4.73684 5.87296,-6.4006 9.9763,-4.78321 2.42282,0.95499 4.2275,2.30471 7.46756,5.58497 3.34168,3.38313 10.22416,12.3987 10.80216,14.15006 0.97342,2.94949 -0.55715,11.86158 -2.86625,16.68944 -2.19847,4.59655 -4.94552,5.9547 -9.50503,4.69929 z m 77.74605,-26.4287 c -3.45032,-1.14859 -6.50996,-3.85923 -7.89748,-6.99666 -2.11785,-4.78884 -2.83058,-10.70451 -1.8913,-15.69788 2.04325,-10.86219 8.62013,-19.425729 14.91987,-19.42667 4.11664,-4.66e-4 6.90319,2.38031 11.43323,9.76897 l 2.02873,3.30894 -0.0127,4.41191 c -0.01,3.35384 -0.18608,5.23655 -0.73587,7.8505 -1.86729,8.87796 -4.98386,14.55179 -8.93265,16.26221 -2.06041,0.89246 -6.93653,1.17626 -8.91188,0.51868 z M 494.13946,79.79795 c -1.89723,-0.67771 -3.97796,-2.03119 -4.78583,-3.11311 -1.23524,-1.65427 -1.61549,-3.27188 -1.60957,-6.84718 0.006,-3.81791 0.53894,-5.52285 1.82626,-5.84594 2.2102,-0.55473 7.68208,4.04532 9.01565,7.57918 2.24967,5.96146 0.13974,9.8653 -4.44651,8.22705 z m 32.35058,-0.72038 c -3.41064,-0.76334 -8.85778,-3.24476 -12.58445,-5.7328 -3.04186,-2.03083 -8.58778,-7.43314 -10.56104,-10.28757 -2.5327,-3.663686 -2.99745,-5.208967 -2.98397,-9.92177 0.0136,-4.761822 0.48545,-6.744895 2.68627,-11.289917 2.97723,-6.148438 7.86544,-9.981792 12.72855,-9.981792 1.89609,0 2.55102,0.164772 4.66243,1.172956 5.44455,2.599752 8.77586,7.178102 10.90707,14.990008 0.34465,1.263321 1.34422,3.55088 2.22125,5.083462 4.07579,7.122323 6.03786,12.353083 6.24957,16.660993 0.17708,3.60307 -0.32759,5.15153 -2.25928,6.9321 -1.9738,1.81939 -4.31679,2.59687 -7.69051,2.55195 -1.51009,-0.0201 -3.02924,-0.10004 -3.37589,-0.17762 z m 35.87631,-7.99243 c -3.24513,-0.64202 -5.4841,-2.70818 -9.71839,-8.96832 -3.05405,-4.515231 -3.97063,-6.728485 -5.33335,-12.878483 -2.63315,-11.883449 -1.4526,-20.567872 3.50226,-25.763482 2.05037,-2.149995 3.56369,-3.137756 6.19353,-4.042545 3.91189,-1.345893 7.46955,-1.076224 10.97545,0.831924 2.05163,1.116639 6.19083,5.475193 7.61052,8.013823 1.5521,2.775412 2.93916,6.213987 3.73145,9.250426 1.63528,6.267087 -0.0109,14.91674 -4.63674,24.362397 -1.71654,3.50511 -2.39527,4.53749 -4.17283,6.34706 -1.72167,1.75268 -2.44559,2.25692 -3.83063,2.66824 -1.85446,0.55072 -2.34052,0.57085 -4.32127,0.17896 z m 33.57907,-20.864727 c -0.68751,-0.455249 -1.43474,-1.442265 -2.08754,-2.757442 -1.48007,-2.981785 -1.3857,-5.351586 0.44924,-11.282042 1.05673,-3.415328 1.87146,-4.632343 3.10115,-4.632343 0.81693,0 1.0594,0.234977 1.9511,1.890821 1.1602,2.154388 3.33357,7.528242 3.89765,9.637284 0.54915,2.053211 0.16006,3.562499 -1.33709,5.186733 -1.23048,1.334895 -3.43713,2.666049 -4.41954,2.666049 -0.26629,0 -0.96603,-0.319072 -1.55497,-0.70906 z M 505.31424,30.774616 c -0.55389,-0.337725 -1.24161,-0.972009 -1.52828,-1.409518 -0.84652,-1.291954 -2.36653,-5.260294 -2.56249,-6.689951 -0.22962,-1.675241 0.37246,-4.883615 1.26192,-6.724529 1.29714,-2.684692 2.84268,-2.641281 5.68884,0.159773 4.07712,4.012496 5.82538,8.479673 4.41384,11.278289 -0.8303,1.646198 -2.02397,2.700828 -3.81558,3.371163 -2.07499,0.776351 -2.20829,0.776913 -3.45825,0.01479 z M 556.9007,13.144407 c -1.98993,-1.043601 -5.16262,-4.215382 -5.84125,-5.839563 -1.29892,-3.108763 0.51666,-11.936842 2.69465,-13.102466 1.06183,-0.568275 3.05435,0.587541 5.54207,3.214831 1.25393,1.32429 2.63953,3.181451 3.15136,4.223852 0.8042,1.637864 0.91288,2.199643 0.90858,4.696619 -0.004,2.280281 -0.14791,3.154458 -0.73453,4.459687 -1.42681,3.174662 -2.95069,3.799848 -5.72088,2.34704 z"
         id="path5360"
         inkscape:connector-curvature="0" />
    </g>
  </g>
</svg>
