<?xml version="1.0" encoding="UTF-8" standalone="no"?>
<!-- Created with Inkscape (http://www.inkscape.org/) -->

<svg
   xmlns:dc="http://purl.org/dc/elements/1.1/"
   xmlns:cc="http://creativecommons.org/ns#"
   xmlns:rdf="http://www.w3.org/1999/02/22-rdf-syntax-ns#"
   xmlns:svg="http://www.w3.org/2000/svg"
   xmlns="http://www.w3.org/2000/svg"
   xmlns:xlink="http://www.w3.org/1999/xlink"
   xmlns:sodipodi="http://sodipodi.sourceforge.net/DTD/sodipodi-0.dtd"
   xmlns:inkscape="http://www.inkscape.org/namespaces/inkscape"
   width="252.77826"
   height="252.77826"
   id="svg2"
   version="1.1"
   inkscape:version="0.48.0 r9654"
   sodipodi:docname="logos.svg">
  <defs
     id="defs4">
    <linearGradient
       id="linearGradient4592">
      <stop
         id="stop4594"
         offset="0"
         style="stop-color:#bfbfbf;stop-opacity:1" />
      <stop
         id="stop4596"
         offset="1"
         style="stop-color:#eeeeee;stop-opacity:1" />
    </linearGradient>
    <linearGradient
       id="linearGradient4491">
      <stop
         style="stop-color:#7fc0ff;stop-opacity:1"
         offset="0"
         id="stop4493" />
      <stop
         style="stop-color:#ddefff;stop-opacity:1"
         offset="1"
         id="stop4495" />
    </linearGradient>
    <linearGradient
       id="linearGradient4075">
      <stop
         id="stop4077"
         offset="0"
         style="stop-color:#3199ff;stop-opacity:1" />
      <stop
         id="stop4079"
         offset="1"
         style="stop-color:#9fd0ff;stop-opacity:1" />
    </linearGradient>
    <linearGradient
       id="linearGradient4069"
       inkscape:collect="always">
      <stop
         id="stop4071"
         offset="0"
         style="stop-color:#353535;stop-opacity:1" />
      <stop
         id="stop4073"
         offset="1"
         style="stop-color:#a5a5a5;stop-opacity:1" />
    </linearGradient>
    <linearGradient
       id="linearGradient3846">
      <stop
         style="stop-color:#464646;stop-opacity:1"
         offset="0"
         id="stop3848" />
      <stop
         style="stop-color:#727272;stop-opacity:1"
         offset="1"
         id="stop3850" />
    </linearGradient>
    <filter
       inkscape:collect="always"
       id="filter3832"
       color-interpolation-filters="sRGB">
      <feGaussianBlur
         inkscape:collect="always"
         stdDeviation="2.4496199"
         id="feGaussianBlur3834" />
    </filter>
    <clipPath
       clipPathUnits="userSpaceOnUse"
       id="clipPath3881">
      <path
         transform="matrix(0.83092783,0,0,0.83092783,54.90856,92.957784)"
         sodipodi:type="arc"
         style="fill:#333333;fill-opacity:1;stroke:none"
         id="path3883"
         sodipodi:cx="324.76404"
         sodipodi:cy="549.81128"
         sodipodi:rx="244.96199"
         sodipodi:ry="244.96199"
         d="m 569.72603,549.81128 a 244.96199,244.96199 0 1 1 -489.923982,0 244.96199,244.96199 0 1 1 489.923982,0 z" />
    </clipPath>
    <filter
       inkscape:collect="always"
       id="filter4104"
       color-interpolation-filters="sRGB">
      <feGaussianBlur
         inkscape:collect="always"
         stdDeviation="19.596875"
         id="feGaussianBlur4106" />
    </filter>
    <filter
       inkscape:collect="always"
       id="filter4125"
       x="-0.12851599"
       width="1.257032"
       y="-0.1072925"
       height="1.2145849"
       color-interpolation-filters="sRGB">
      <feGaussianBlur
         inkscape:collect="always"
         stdDeviation="12.82832"
         id="feGaussianBlur4127" />
    </filter>
    <filter
       inkscape:collect="always"
       id="filter4179"
       color-interpolation-filters="sRGB">
      <feGaussianBlur
         inkscape:collect="always"
         stdDeviation="4.2743758"
         id="feGaussianBlur4181" />
    </filter>
    <filter
       inkscape:collect="always"
       id="filter5012"
       x="-0.05063929"
       width="1.1012785"
       y="-0.12452889"
       height="1.2490578"
       color-interpolation-filters="sRGB">
      <feGaussianBlur
         inkscape:collect="always"
         stdDeviation="1.9467773"
         id="feGaussianBlur5014" />
    </filter>
    <clipPath
       clipPathUnits="userSpaceOnUse"
       id="clipPath5668">
      <rect
         y="-27.494961"
         x="-400.71429"
         height="192.85715"
         width="192.85715"
         id="rect5670"
         style="fill:url(#linearGradient5672);fill-opacity:1;stroke:none" />
    </clipPath>
    <linearGradient
       inkscape:collect="always"
       xlink:href="#linearGradient4075"
       id="linearGradient5672"
       gradientUnits="userSpaceOnUse"
       gradientTransform="matrix(0.92465753,0,0,0.92465753,-152.37769,3.3443131)"
       x1="-168.57144"
       y1="172.86993"
       x2="-168.57144"
       y2="-28.352106" />
    <filter
       inkscape:collect="always"
       id="filter5702"
       color-interpolation-filters="sRGB">
      <feGaussianBlur
         inkscape:collect="always"
         stdDeviation="7.7498438"
         id="feGaussianBlur5704" />
    </filter>
    <linearGradient
       inkscape:collect="always"
       xlink:href="#linearGradient4075"
       id="linearGradient5794"
       gradientUnits="userSpaceOnUse"
       gradientTransform="matrix(0.92465753,0,0,0.92465753,-152.37769,3.3443131)"
       x1="-168.57144"
       y1="172.86993"
       x2="-168.57144"
       y2="-28.352106" />
    <linearGradient
       inkscape:collect="always"
       xlink:href="#linearGradient4069"
       id="linearGradient5796"
       gradientUnits="userSpaceOnUse"
       x1="358.60416"
       y1="781.6413"
       x2="358.60416"
       y2="309.26456" />
    <linearGradient
       inkscape:collect="always"
       xlink:href="#linearGradient4075"
       id="linearGradient5798"
       gradientUnits="userSpaceOnUse"
       x1="303.90353"
       y1="348.95438"
       x2="303.90353"
       y2="769.75586" />
    <linearGradient
       inkscape:collect="always"
       xlink:href="#linearGradient4069"
       id="linearGradient5800"
       gradientUnits="userSpaceOnUse"
       x1="358.60416"
       y1="781.6413"
       x2="358.60416"
       y2="309.26456" />
    <linearGradient
       inkscape:collect="always"
       xlink:href="#linearGradient4075"
       id="linearGradient5802"
       gradientUnits="userSpaceOnUse"
       x1="303.90353"
       y1="348.95438"
       x2="303.90353"
       y2="769.75586" />
  </defs>
  <sodipodi:namedview
     id="base"
     pagecolor="#ffffff"
     bordercolor="#666666"
     borderopacity="1.0"
     inkscape:pageopacity="0.0"
     inkscape:pageshadow="2"
     inkscape:zoom="0.7"
     inkscape:cx="-133.83761"
     inkscape:cy="-180.2076"
     inkscape:document-units="px"
     inkscape:current-layer="layer1"
     showgrid="false"
     showguides="true"
     inkscape:guide-bbox="true"
     inkscape:window-width="1437"
     inkscape:window-height="854"
     inkscape:window-x="4"
     inkscape:window-y="0"
     inkscape:window-maximized="0"
     fit-margin-top="0"
     fit-margin-left="0"
     fit-margin-right="0"
     fit-margin-bottom="0" />
  <metadata
     id="metadata7">
    <rdf:RDF>
      <cc:Work
         rdf:about="">
        <dc:format>image/svg+xml</dc:format>
        <dc:type
           rdf:resource="http://purl.org/dc/dcmitype/StillImage" />
        <dc:title></dc:title>
      </cc:Work>
    </rdf:RDF>
  </metadata>
  <g
     inkscape:label="Layer 1"
     inkscape:groupmode="layer"
     id="layer1"
     transform="translate(-237.62068,-30.41368)">
    <g
       style="font-size:73.84620667px;font-style:normal;font-variant:normal;font-weight:100;font-stretch:normal;text-align:start;line-height:125%;letter-spacing:0px;word-spacing:0px;writing-mode:lr-tb;text-anchor:start;fill:#666666;fill-opacity:1;stroke:none;font-family:Skia;-inkscape-font-specification:Skia Thin"
       id="text5130" />
    <g
       id="g5421"
       transform="translate(169.50258,87.27922)">
      <g
         inkscape:export-ydpi="182.29411"
         inkscape:export-xdpi="182.29411"
         inkscape:export-filename="/Users/maebert/Desktop/tracregate.png"
         transform="matrix(1.3029553,0,0,1.3029553,-18.056409,-356.77984)"
         id="g4872">
        <path
           transform="matrix(0.38670656,0,0,0.38670656,37.55124,114.5663)"
           sodipodi:type="arc"
           style="fill:#cccccc;fill-opacity:1;stroke:none;filter:url(#filter3832)"
           id="path3058"
           sodipodi:cx="324.76404"
           sodipodi:cy="549.81128"
           sodipodi:rx="244.96199"
           sodipodi:ry="244.96199"
           d="m 569.72603,549.81128 c 0,135.28877 -109.67322,244.96199 -244.96199,244.96199 -135.28877,0 -244.961992,-109.67322 -244.961992,-244.96199 0,-135.28877 109.673222,-244.96199 244.961992,-244.96199 135.28877,0 244.96199,109.67322 244.96199,244.96199 z" />
        <path
           d="m 569.72603,549.81128 c 0,135.28877 -109.67322,244.96199 -244.96199,244.96199 -135.28877,0 -244.961992,-109.67322 -244.961992,-244.96199 0,-135.28877 109.673222,-244.96199 244.961992,-244.96199 135.28877,0 244.96199,109.67322 244.96199,244.96199 z"
           sodipodi:ry="244.96199"
           sodipodi:rx="244.96199"
           sodipodi:cy="549.81128"
           sodipodi:cx="324.76404"
           id="path3056"
           style="fill:#ffffff;fill-opacity:1;stroke:none"
           sodipodi:type="arc"
           transform="matrix(0.38062867,0,0,0.38062867,39.525125,117.908)" />
        <path
           sodipodi:type="arc"
           style="fill:url(#linearGradient5800);fill-opacity:1;stroke:none"
           id="path3052"
           sodipodi:cx="324.76404"
           sodipodi:cy="549.81128"
           sodipodi:rx="244.96199"
           sodipodi:ry="244.96199"
           d="m 569.72603,549.81128 c 0,135.28877 -109.67322,244.96199 -244.96199,244.96199 -135.28877,0 -244.961992,-109.67322 -244.961992,-244.96199 0,-135.28877 109.673222,-244.96199 244.961992,-244.96199 135.28877,0 244.96199,109.67322 244.96199,244.96199 z"
           transform="matrix(0.36847286,0,0,0.36847286,43.472893,124.5914)" />
        <path
           d="m 569.72603,549.81128 c 0,135.28877 -109.67322,244.96199 -244.96199,244.96199 -135.28877,0 -244.961992,-109.67322 -244.961992,-244.96199 0,-135.28877 109.673222,-244.96199 244.961992,-244.96199 135.28877,0 244.96199,109.67322 244.96199,244.96199 z"
           sodipodi:ry="244.96199"
           sodipodi:rx="244.96199"
           sodipodi:cy="549.81128"
           sodipodi:cx="324.76404"
           id="path3054"
           style="fill:url(#linearGradient5802);fill-opacity:1;stroke:none"
           sodipodi:type="arc"
           transform="matrix(0.30617435,0,0,0.30617435,63.705207,158.84382)" />
        <path
           style="opacity:0.87068936;fill:#004283;fill-opacity:1;stroke:none;filter:url(#filter4104)"
           d="m 324.75,304.84375 c -135.28877,0 -244.9375,109.67998 -244.9375,244.96875 0,135.28877 109.64873,244.96875 244.9375,244.96875 135.28877,0 244.96875,-109.67998 244.96875,-244.96875 0,-135.28877 -109.67998,-244.96875 -244.96875,-244.96875 z m 0,41.40625 c 112.41521,0 203.5625,91.14729 203.5625,203.5625 0,112.41521 -91.14729,203.53125 -203.5625,203.53125 -112.41521,0 -203.53125,-91.11604 -203.53125,-203.53125 0,-112.41521 91.11604,-203.5625 203.53125,-203.5625 z"
           id="path3856"
           inkscape:connector-curvature="0"
           clip-path="url(#clipPath3881)"
           transform="matrix(0.36847286,0,0,0.36847286,43.472893,124.5914)" />
        <path
           style="opacity:0.19396554;fill:#ffffff;fill-opacity:1;stroke:none"
           d="m 163.13445,252.17513 c -40.14686,0 -72.923575,31.55213 -74.903619,71.20738 19.257759,13.37026 45.705559,21.62475 74.903619,21.62475 29.19416,0 55.64652,-8.25765 74.90363,-21.62475 -1.98006,-39.65524 -34.75676,-71.20738 -74.90363,-71.20738 z"
           id="path3909"
           inkscape:connector-curvature="0" />
        <g
           id="g4183"
           transform="matrix(0.36847286,0,0,0.36847286,44.209839,123.85445)">
          <path
             style="fill:#ffffff;fill-opacity:1;filter:url(#filter4179)"
             d="m 297.64242,704.4407 c -9.64433,-2.76469 -13.08681,-6.85176 -13.6453,-16.20036 -0.41339,-6.91931 1.10389,-13.12751 5.35009,-21.89085 3.66397,-7.56175 6.60898,-11.75199 12.99119,-18.48433 5.8204,-6.13968 6.97434,-9.62393 8.44335,-25.49396 1.31988,-14.25891 3.88349,-21.40765 9.71313,-27.08546 6.02055,-5.86375 17.24724,-9.54502 29.33073,-9.61764 6.62588,-0.0398 7.49891,0.1031 10.60414,1.73549 2.18717,1.14978 5.0881,3.70115 8.20303,7.21456 13.58707,15.32525 19.25443,19.46872 36.04943,26.35616 12.28839,5.03933 13.69778,5.74973 16.78531,8.46061 6.72008,5.90031 7.25289,17.06939 1.43217,30.02245 -2.40217,5.34566 -5.5427,8.60293 -10.39345,10.77982 -5.43162,2.43756 -8.94136,2.93855 -25.54762,3.64674 -16.22661,0.69199 -22.99717,1.70595 -31.19269,4.67144 -7.10943,2.5725 -13.72158,6.40244 -23.73069,13.74548 -4.51624,3.31328 -9.89307,7.03709 -11.94849,8.27512 -7.31405,4.40544 -15.58813,5.83017 -22.44433,3.86473 z m -43.45715,-42.66928 c -4.19657,-1.15548 -10.8976,-4.35111 -15.45028,-7.36803 -5.51289,-3.65322 -17.08518,-15.044 -18.87793,-18.58182 -6.54125,-12.90857 -5.96795,-35.4889 1.26297,-49.74327 5.00497,-9.8663 12.2327,-13.3317 20.77947,-9.96287 5.04645,1.98912 8.8054,4.80043 15.55407,11.63284 6.96032,7.04667 21.29573,25.82505 22.49964,29.47292 2.02752,6.14344 -1.16048,24.7063 -5.97007,34.76216 -4.57915,9.57409 -10.30095,12.40294 -19.79787,9.78807 z m 161.93596,-55.04789 c -7.18662,-2.39238 -13.55949,-8.03833 -16.44954,-14.57323 -4.41123,-9.9746 -5.89576,-22.29626 -3.93935,-32.69685 4.25585,-22.62469 17.95473,-40.46154 31.07635,-40.4635 8.57449,-9.7e-4 14.37854,4.95791 23.81408,20.34763 l 4.22561,6.89213 -0.0264,9.18949 c -0.02,6.98567 -0.38759,10.90713 -1.53274,16.35168 -3.88934,18.49177 -10.38079,30.30968 -18.60566,33.87229 -4.29159,1.85889 -14.44799,2.45002 -18.56241,1.08036 z M 208.92719,573.21158 c -3.95172,-1.41159 -8.28562,-4.23073 -9.96832,-6.48425 -2.57286,-3.44566 -3.36489,-6.81495 -3.35255,-14.26189 0.0132,-7.95226 1.12254,-11.50345 3.80388,-12.17641 4.60359,-1.15543 16.00089,8.42593 18.77855,15.78656 4.6858,12.41703 0.29106,20.54827 -9.26156,17.13599 z m 67.38249,-1.50047 c -7.10396,-1.58995 -18.44973,-6.75847 -26.21194,-11.94075 -6.33584,-4.23 -17.88735,-15.48238 -21.99743,-21.42781 -5.27532,-7.63104 -6.24333,-10.84968 -6.21526,-20.6659 0.0283,-9.91832 1.01114,-14.04883 5.5952,-23.51558 6.20122,-12.80648 16.38278,-20.79091 26.51209,-20.79091 3.94932,0 5.31347,0.3432 9.71128,2.44313 11.34038,5.41498 18.27911,14.95115 22.71816,31.22244 0.71788,2.63135 2.79985,7.39607 4.62661,10.58826 8.48939,14.83497 12.57615,25.73003 13.01713,34.70291 0.36883,7.50477 -0.68234,10.73004 -4.70583,14.43876 -4.11119,3.78958 -8.99137,5.40897 -16.01842,5.3154 -3.14534,-0.0419 -6.30956,-0.20836 -7.03159,-0.36995 z m 74.72616,-16.6473 c -6.75922,-1.33725 -11.42273,-5.64083 -20.24226,-18.67998 -6.36124,-9.40469 -8.27036,-14.01464 -11.10875,-26.82437 -5.48455,-24.75184 -3.0256,-42.84048 7.2948,-53.66233 4.27069,-4.47819 7.42276,-6.53558 12.90041,-8.42015 8.148,-2.80334 15.55819,-2.24165 22.86057,1.7328 4.2733,2.32583 12.89479,11.40419 15.85183,16.69186 3.23284,5.78086 6.12192,12.94301 7.77217,19.26756 3.4061,13.05361 -0.0228,31.06983 -9.65779,50.74403 -3.57535,7.30073 -4.98907,9.45106 -8.69151,13.22018 -3.58604,3.65064 -5.09388,4.70092 -7.97875,5.55765 -3.86264,1.14707 -4.87503,1.18901 -9.00072,0.37275 z m 69.94131,-43.4588 c -1.43201,-0.94823 -2.9884,-3.00407 -4.34812,-5.74343 -3.0828,-6.21071 -2.88625,-11.14673 0.93572,-23.49918 2.20105,-7.11373 3.89803,-9.64863 6.45934,-9.64863 1.70156,0 2.2066,0.48943 4.06392,3.93836 2.41656,4.48734 6.94343,15.68045 8.11834,20.07334 1.14381,4.2766 0.33339,7.42027 -2.78501,10.80336 -2.56293,2.78043 -7.15913,5.55307 -9.20538,5.55307 -0.55465,0 -2.01213,-0.66459 -3.23881,-1.47689 z M 232.20296,471.10168 c -1.15369,-0.70344 -2.58613,-2.02458 -3.18323,-2.93586 -1.7632,-2.69099 -4.92922,-10.95658 -5.33738,-13.93439 -0.47826,-3.48933 0.7758,-10.172 2.62843,-14.00641 2.70179,-5.5919 5.92098,-5.50148 11.8492,0.33279 8.49217,8.35756 12.13358,17.66217 9.19351,23.49136 -1.72942,3.42884 -4.21568,5.62551 -7.9474,7.02174 -4.32196,1.61705 -4.59961,1.61822 -7.20313,0.0308 z m 107.44857,-36.72167 c -4.14478,-2.1737 -10.75312,-8.78015 -12.16663,-12.16313 -2.7055,-6.47519 1.07614,-24.86305 5.61264,-27.29091 2.21167,-1.18365 6.36185,1.22378 11.54348,6.69612 2.61179,2.75834 5.49784,6.62659 6.56392,8.79779 1.67505,3.41148 1.90142,4.5816 1.89247,9.78251 -0.009,4.74956 -0.30808,6.57037 -1.52994,9.28901 -2.97188,6.61245 -6.14595,7.91464 -11.91594,4.88861 z"
             id="path4145"
             inkscape:connector-curvature="0" />
          <path
             inkscape:connector-curvature="0"
             id="path3050"
             d="m 297.64242,704.4407 c -9.64433,-2.76469 -13.08681,-6.85176 -13.6453,-16.20036 -0.41339,-6.91931 1.10389,-13.12751 5.35009,-21.89085 3.66397,-7.56175 6.60898,-11.75199 12.99119,-18.48433 5.8204,-6.13968 6.97434,-9.62393 8.44335,-25.49396 1.31988,-14.25891 3.88349,-21.40765 9.71313,-27.08546 6.02055,-5.86375 17.24724,-9.54502 29.33073,-9.61764 6.62588,-0.0398 7.49891,0.1031 10.60414,1.73549 2.18717,1.14978 5.0881,3.70115 8.20303,7.21456 13.58707,15.32525 19.25443,19.46872 36.04943,26.35616 12.28839,5.03933 13.69778,5.74973 16.78531,8.46061 6.72008,5.90031 7.25289,17.06939 1.43217,30.02245 -2.40217,5.34566 -5.5427,8.60293 -10.39345,10.77982 -5.43162,2.43756 -8.94136,2.93855 -25.54762,3.64674 -16.22661,0.69199 -22.99717,1.70595 -31.19269,4.67144 -7.10943,2.5725 -13.72158,6.40244 -23.73069,13.74548 -4.51624,3.31328 -9.89307,7.03709 -11.94849,8.27512 -7.31405,4.40544 -15.58813,5.83017 -22.44433,3.86473 z m -43.45715,-42.66928 c -4.19657,-1.15548 -10.8976,-4.35111 -15.45028,-7.36803 -5.51289,-3.65322 -17.08518,-15.044 -18.87793,-18.58182 -6.54125,-12.90857 -5.96795,-35.4889 1.26297,-49.74327 5.00497,-9.8663 12.2327,-13.3317 20.77947,-9.96287 5.04645,1.98912 8.8054,4.80043 15.55407,11.63284 6.96032,7.04667 21.29573,25.82505 22.49964,29.47292 2.02752,6.14344 -1.16048,24.7063 -5.97007,34.76216 -4.57915,9.57409 -10.30095,12.40294 -19.79787,9.78807 z m 161.93596,-55.04789 c -7.18662,-2.39238 -13.55949,-8.03833 -16.44954,-14.57323 -4.41123,-9.9746 -5.89576,-22.29626 -3.93935,-32.69685 4.25585,-22.62469 17.95473,-40.46154 31.07635,-40.4635 8.57449,-9.7e-4 14.37854,4.95791 23.81408,20.34763 l 4.22561,6.89213 -0.0264,9.18949 c -0.02,6.98567 -0.38759,10.90713 -1.53274,16.35168 -3.88934,18.49177 -10.38079,30.30968 -18.60566,33.87229 -4.29159,1.85889 -14.44799,2.45002 -18.56241,1.08036 z M 208.92719,573.21158 c -3.95172,-1.41159 -8.28562,-4.23073 -9.96832,-6.48425 -2.57286,-3.44566 -3.36489,-6.81495 -3.35255,-14.26189 0.0132,-7.95226 1.12254,-11.50345 3.80388,-12.17641 4.60359,-1.15543 16.00089,8.42593 18.77855,15.78656 4.6858,12.41703 0.29106,20.54827 -9.26156,17.13599 z m 67.38249,-1.50047 c -7.10396,-1.58995 -18.44973,-6.75847 -26.21194,-11.94075 -6.33584,-4.23 -17.88735,-15.48238 -21.99743,-21.42781 -5.27532,-7.63104 -6.24333,-10.84968 -6.21526,-20.6659 0.0283,-9.91832 1.01114,-14.04883 5.5952,-23.51558 6.20122,-12.80648 16.38278,-20.79091 26.51209,-20.79091 3.94932,0 5.31347,0.3432 9.71128,2.44313 11.34038,5.41498 18.27911,14.95115 22.71816,31.22244 0.71788,2.63135 2.79985,7.39607 4.62661,10.58826 8.48939,14.83497 12.57615,25.73003 13.01713,34.70291 0.36883,7.50477 -0.68234,10.73004 -4.70583,14.43876 -4.11119,3.78958 -8.99137,5.40897 -16.01842,5.3154 -3.14534,-0.0419 -6.30956,-0.20836 -7.03159,-0.36995 z m 74.72616,-16.6473 c -6.75922,-1.33725 -11.42273,-5.64083 -20.24226,-18.67998 -6.36124,-9.40469 -8.27036,-14.01464 -11.10875,-26.82437 -5.48455,-24.75184 -3.0256,-42.84048 7.2948,-53.66233 4.27069,-4.47819 7.42276,-6.53558 12.90041,-8.42015 8.148,-2.80334 15.55819,-2.24165 22.86057,1.7328 4.2733,2.32583 12.89479,11.40419 15.85183,16.69186 3.23284,5.78086 6.12192,12.94301 7.77217,19.26756 3.4061,13.05361 -0.0228,31.06983 -9.65779,50.74403 -3.57535,7.30073 -4.98907,9.45106 -8.69151,13.22018 -3.58604,3.65064 -5.09388,4.70092 -7.97875,5.55765 -3.86264,1.14707 -4.87503,1.18901 -9.00072,0.37275 z m 69.94131,-43.4588 c -1.43201,-0.94823 -2.9884,-3.00407 -4.34812,-5.74343 -3.0828,-6.21071 -2.88625,-11.14673 0.93572,-23.49918 2.20105,-7.11373 3.89803,-9.64863 6.45934,-9.64863 1.70156,0 2.2066,0.48943 4.06392,3.93836 2.41656,4.48734 6.94343,15.68045 8.11834,20.07334 1.14381,4.2766 0.33339,7.42027 -2.78501,10.80336 -2.56293,2.78043 -7.15913,5.55307 -9.20538,5.55307 -0.55465,0 -2.01213,-0.66459 -3.23881,-1.47689 z M 232.20296,471.10168 c -1.15369,-0.70344 -2.58613,-2.02458 -3.18323,-2.93586 -1.7632,-2.69099 -4.92922,-10.95658 -5.33738,-13.93439 -0.47826,-3.48933 0.7758,-10.172 2.62843,-14.00641 2.70179,-5.5919 5.92098,-5.50148 11.8492,0.33279 8.49217,8.35756 12.13358,17.66217 9.19351,23.49136 -1.72942,3.42884 -4.21568,5.62551 -7.9474,7.02174 -4.32196,1.61705 -4.59961,1.61822 -7.20313,0.0308 z m 107.44857,-36.72167 c -4.14478,-2.1737 -10.75312,-8.78015 -12.16663,-12.16313 -2.7055,-6.47519 1.07614,-24.86305 5.61264,-27.29091 2.21167,-1.18365 6.36185,1.22378 11.54348,6.69612 2.61179,2.75834 5.49784,6.62659 6.56392,8.79779 1.67505,3.41148 1.90142,4.5816 1.89247,9.78251 -0.009,4.74956 -0.30808,6.57037 -1.52994,9.28901 -2.97188,6.61245 -6.14595,7.91464 -11.91594,4.88861 z"
             style="fill:#333333;fill-opacity:1" />
          <path
             inkscape:connector-curvature="0"
             id="path3951"
             d="m 343.28125,414.34375 c -1.89615,5.5314 -0.21408,14.32125 5.65625,15.875 1.60646,-5.7723 -1.47749,-12.51943 -5.65625,-15.875 z m -103.5,42.21875 c -0.20335,3.50769 0.80642,8.89999 3.59375,10.5 2.4512,-3.62153 -1.75843,-8.3972 -3.59375,-10.5 z m 115.3125,5.1875 c -15.36754,0.63148 -24.38947,17.91291 -22.07837,31.78113 0.25206,21.28003 7.32921,44.26221 24.82837,57.50012 7.97095,2.55925 12.27423,-6.81237 15.28125,-12.4375 9.82342,-17.53505 14.74638,-40.2642 4.56203,-58.61774 -4.57968,-8.18254 -12.19066,-18.35338 -22.59328,-18.22601 z M 258.75,489.625 c -14.38445,3.84357 -20.40073,20.34584 -21.1875,33.84375 -0.32222,14.83772 12.52935,24.52832 23,33.03125 10.00731,7.43009 23.24763,13.97374 35.9375,10.40625 6.55921,-3.65237 2.98558,-11.90168 1.65625,-17.3125 -5.002,-14.8343 -14.81999,-27.91004 -18.59375,-43.3125 -3.94699,-7.97944 -10.74261,-17.44697 -20.8125,-16.65625 z m 172.03125,10.78125 c -0.36192,1.77999 -0.49951,6.75031 1.125,6.59375 1.12731,-2.07581 0.30292,-5.0119 -1.125,-6.59375 z m 1.09375,34.875 c -13.27013,5.16781 -17.6562,20.52213 -20.40625,33.09375 -1.91587,12.54517 0.38704,29.03683 13.375,34.6875 8.38335,2.79324 18.41195,-2.74554 19.83592,-11.64891 4.67817,-11.91815 8.38112,-25.45028 4.78908,-38.16359 -4.80307,-6.36167 -7.92886,-18.30858 -17.59375,-17.96875 z m -220.53125,25.3125 c 0.11768,3.15397 1.83771,7.30599 4.4375,8.34375 -0.68794,-2.94724 -2.3541,-6.48077 -4.4375,-8.34375 z m 30,30.53125 c -9.08966,5.01227 -8.64674,17.67781 -10.15625,26.875 -0.84593,11.4095 3.88094,23.49107 13.84375,29.71875 6.35622,5.34549 14.12932,11.82896 22.875,9.9375 7.07066,-7.09522 6.63791,-18.24105 8.90625,-27.3125 -0.93021,-9.20882 -9.57015,-14.90738 -14.09375,-22.40625 -5.67433,-6.97291 -12.14651,-14.84991 -21.375,-16.8125 z M 358,601.4375 c -11.32576,-0.1449 -26.64039,3.06906 -29.375,15.9375 -3.18749,14.64009 -1.18804,32.71854 -13.34375,43.71875 -8.86692,9.74486 -18.19855,23.39276 -14,37.03125 7.53218,6.71118 19.14885,1.57132 25.67085,-4.31378 16.18133,-12.48552 34.87758,-23.44436 55.9229,-23.49872 11.31455,-1.05663 24.08253,1.15111 34.0625,-5.21875 5.47721,-5.49704 8.8552,-16.67626 2.75,-22.75 -9.84567,-6.34883 -22.06159,-8.20516 -31.40625,-15.375 -10.62203,-6.76082 -17.97275,-17.45794 -27.6875,-25.1875 -0.82898,-0.28083 -1.71616,-0.46533 -2.59375,-0.34375 z"
             style="opacity:0.40086209;fill:#eff6ff;fill-opacity:1;filter:url(#filter4125)" />
        </g>
      </g>
    </g>
  </g>
</svg>
